<svg xmlns="http://www.w3.org/2000/svg" width="384" height="64" viewBox="0 0 384 64"><defs></defs><g transform="translate(0 0)"><ellipse cx="32" cy="58" rx="25" ry="4" fill="#1d392f" opacity=".5"/><path d="M13 57 H49 L52 42 L44 30 H20 L12 42 Z" fill="#72533a" stroke="#2d2c2a" stroke-width="3"/><path d="M14 42 H50 M21 32 V54 M41 32 V54" stroke="#aa7a4b" stroke-width="3"/><path d="M17 49 H47" stroke="#d3ab65" stroke-width="2"/><path d="M8 57 H56" stroke="#25443a" stroke-width="3" opacity=".7"/></g><g transform="translate(64 0)"><ellipse cx="32" cy="58" rx="25" ry="4" fill="#1d392f" opacity=".5"/><path d="M27 57 V13 H37 V57" fill="#66594b" stroke="#303538" stroke-width="3"/><path d="M21 15 H43 V21 H21Z" fill="#a49a82" stroke="#303538" stroke-width="2"/><path d="M30 22 H35 V44 H30Z" fill="#e3b75e"/><path d="M20 56 H44" stroke="#ad9872" stroke-width="5"/><path d="M8 57 H56" stroke="#25443a" stroke-width="3" opacity=".7"/></g><g transform="translate(128 0)"><ellipse cx="32" cy="58" rx="25" ry="4" fill="#1d392f" opacity=".5"/><path d="M15 57 V39 L32 27 L49 39 V57 Z" fill="#8c6847" stroke="#2e302d" stroke-width="3"/><path d="M14 39 L32 25 L50 39" fill="none" stroke="#d3a56c" stroke-width="4"/><path d="M23 45 H41 V57 H23 Z" fill="#4c3a30"/><path d="M30 45 V57" stroke="#d6ae69" stroke-width="2"/><path d="M8 57 H56" stroke="#25443a" stroke-width="3" opacity=".7"/></g><g transform="translate(192 0)"><ellipse cx="32" cy="58" rx="25" ry="4" fill="#1d392f" opacity=".5"/><path d="M18 57 L21 28 H43 L46 57 Z" fill="#555d56" stroke="#283b3a" stroke-width="3"/><path d="M25 36 H40 M23 47 H42" stroke="#aebba4" stroke-width="3"/><circle cx="32" cy="23" r="6" fill="#e9ba64" stroke="#665338" stroke-width="2"/><path d="M8 57 H56" stroke="#25443a" stroke-width="3" opacity=".7"/></g><g transform="translate(256 0)"><ellipse cx="32" cy="58" rx="25" ry="4" fill="#1d392f" opacity=".5"/><path d="M15 57 Q18 37 32 39 Q46 37 49 57 Z" fill="#406b51" stroke="#274a3d" stroke-width="3"/><path d="M22 42 L15 29 M28 41 L25 25 M36 41 L39 22 M43 43 L50 30" stroke="#8fc17b" stroke-width="4"/><path d="M18 52 H47" stroke="#acd690" stroke-width="2"/><path d="M8 57 H56" stroke="#25443a" stroke-width="3" opacity=".7"/></g><g transform="translate(320 0)"><ellipse cx="32" cy="58" rx="25" ry="4" fill="#1d392f" opacity=".5"/><path d="M21 57 V16 H43 V57" fill="#5b483b" stroke="#2b2c2a" stroke-width="3"/><path d="M18 16 H46 L43 8 H21Z" fill="#b79965" stroke="#3d3833" stroke-width="2"/><path d="M25 23 H39 V42 H25Z" fill="#e7b768" stroke="#3e4a42" stroke-width="2"/><path d="M30 26 H35 V40 H30Z" fill="#fff0a5"/><path d="M8 57 H56" stroke="#25443a" stroke-width="3" opacity=".7"/></g></svg>