<svg xmlns="http://www.w3.org/2000/svg" width="128" height="64" viewBox="0 0 128 64"><defs><linearGradient id="day" x1="0" y1="0" x2="0" y2="1"><stop stop-color="#458ac1"/><stop offset=".55" stop-color="#88c4dd"/><stop offset="1" stop-color="#d2e6d6"/></linearGradient>
<radialGradient id="glow"><stop stop-color="#fff5cb" stop-opacity=".75"/><stop offset="1" stop-color="#fff5cb" stop-opacity="0"/></radialGradient></defs><g transform="translate(0 0)"><rect width="64" height="64" fill="url(#day)"/><path d="M4 19 H11 V16 H18 V12 H32 V14 H41 V18 H50 V21 H58 V24 H4Z" fill="#f6fff1" opacity=".62"/><path d="M9 24 H38 V26 H9Z" fill="#e9f9ed" opacity=".55"/><path d="M0 46 H64 M0 55 H64" stroke="#ddf3e5" stroke-opacity=".28" stroke-width="2"/></g><g transform="translate(64 0)"><rect width="64" height="64" fill="url(#day)"/><path d="M0 26 H12 V22 H19 V19 H36 V20 H44 V24 H64 V29 H0Z" fill="#f5fff1" opacity=".68"/><path d="M22 30 H51 V32 H22Z" fill="#dff5ed" opacity=".58"/><path d="M0 46 H64 M0 55 H64" stroke="#ddf3e5" stroke-opacity=".28" stroke-width="2"/></g></svg>